<?xml version="1.0" encoding="UTF-8"?>
<svg version="1.1" xmlns="http://www.w3.org/2000/svg" width="24" height="24">
<path d="M0 0 C4.38334042 0.1718957 6.51975534 0.60149911 9.9375 3.4375 C12.49066595 6.95764575 12.70565603 10.32890796 12.5 14.58984375 C11.68318836 18.5271311 9.92240049 20.28634241 7 23 C3.26547837 24.86726081 -0.93349247 24.54801327 -5 24 C-7.86972365 22.67110601 -8.87079518 21.51136979 -11 19 C-11.875 15.6875 -11.875 15.6875 -12 13 C-9.1875 12.75 -9.1875 12.75 -6 13 C-4.5 15 -4.5 15 -3 17 C0.04230823 17.50010524 0.04230823 17.50010524 3 17 C5.28056299 15.11625538 5.28056299 15.11625538 5.4375 12.0625 C5.293125 11.051875 5.14875 10.04125 5 9 C4.175 8.505 3.35 8.01 2.5 7.5 C1.2625 6.7575 1.2625 6.7575 0 6 C-0.3125 2.8125 -0.3125 2.8125 0 0 Z " fill="#FFFFFF" transform="translate(12,0)"/>
</svg>
